<svg width="50" height="50" viewBox="0 0 50 50" fill="none" xmlns="http://www.w3.org/2000/svg">
<path d="M9.1297 0C4.07225 0 0 4.07224 0 9.12968V40.8703C0 45.9277 4.07225 50 9.1297 50H26.3328V30.4531H21.1641V23.4156H26.3328V17.4031C26.3328 12.6794 29.3868 8.34218 36.4219 8.34218C39.2703 8.34218 41.3766 8.61563 41.3766 8.61563L41.2109 15.1875C41.2109 15.1875 39.0628 15.1672 36.7188 15.1672C34.1818 15.1672 33.775 16.3361 33.775 18.2766V23.4157H41.4125L41.0797 30.4531H33.775V50H40.8703C45.9277 50 50 45.9278 50 40.8703V9.12973C50 4.07229 45.9277 4.99999e-05 40.8703 4.99999e-05H9.12965L9.1297 0Z" fill="white"/>
</svg>
