<svg width="65" height="81" viewBox="0 0 65 81" fill="none" xmlns="http://www.w3.org/2000/svg">
<path d="M32.5 0C21.2997 0 12.1875 9.08415 12.1875 20.25V28.35H8.125C3.64406 28.35 0 31.9829 0 36.45V72.9C0 77.3672 3.64406 81 8.125 81H56.875C61.3559 81 65 77.3672 65 72.9V36.45C65 31.9829 61.3559 28.35 56.875 28.35H52.8125V20.25C52.8125 9.08415 43.7003 0 32.5 0ZM20.3125 20.25C20.3125 13.5513 25.7806 8.1 32.5 8.1C39.2194 8.1 44.6875 13.5513 44.6875 20.25V28.35H20.3125V20.25ZM56.8831 72.9H36.5625V63.6741C38.9797 62.2688 40.625 59.6849 40.625 56.7C40.625 52.2329 36.9809 48.6 32.5 48.6C28.0191 48.6 24.375 52.2329 24.375 56.7C24.375 59.6808 26.0203 62.2688 28.4375 63.6741V72.9H8.125V36.45H56.875L56.8831 72.9V72.9Z" fill="black"/>
</svg>
