<svg width="71" height="89" viewBox="0 0 71 89" fill="none" xmlns="http://www.w3.org/2000/svg">
<path d="M29.0565 16.0103C27.178 16.0103 25.8246 17.3411 25.8246 19.1786C25.8246 21.016 27.188 22.3468 29.0565 22.3468C30.935 22.3468 32.2883 21.016 32.2883 19.1786C32.2984 17.3511 30.935 16.0103 29.0565 16.0103V16.0103ZM68.8387 25.5846C67.4449 24.214 65.5361 23.4493 63.4657 23.4493C63.0718 23.4493 62.7183 23.489 62.3851 23.5486V23.4493H62.0215C61.466 20.4101 60.143 17.4405 58.1735 14.7688C56.2849 12.2163 53.8307 10.0114 51.023 8.32296L53.558 4.76733V4.43957C53.558 4.36012 53.5984 4.21114 53.6287 4.06216C53.6893 3.82379 53.7701 3.5159 53.7701 3.17822C53.7701 1.34081 52.4067 0.00993178 50.5383 0.00993178C49.5485 0.00993178 48.5688 0.576052 47.9225 1.53945L44.9633 5.72079C41.9334 4.74746 38.6612 4.231 35.4899 4.231C32.3287 4.231 29.0565 4.74746 26.0165 5.72079L23.0674 1.52952C22.4009 0.576052 21.4414 0 20.4415 0C18.563 0 17.2097 1.33088 17.2097 3.16828C17.2097 3.78406 17.4622 4.43957 17.8863 4.89644L20.1688 8.10445C17.2703 9.79288 14.7656 12.0176 12.877 14.5701C10.9176 17.2418 9.64509 20.2115 9.17041 23.2506H8.61493V23.35C8.29175 23.2904 7.93826 23.2506 7.53428 23.2506C5.48407 23.2506 3.57525 23.9955 2.17141 25.3661C0.777667 26.7367 0 28.6039 0 30.6301V53.9701C0 55.9863 0.757467 57.8535 2.16131 59.2241C3.55505 60.5947 5.47397 61.3594 7.53428 61.3594C7.92816 61.3594 8.28165 61.3197 8.61493 61.2601V70.5465C8.61493 73.4466 11.0287 75.8203 13.9879 75.8203H17.2097V81.6106C17.2097 83.6268 17.9671 85.494 19.371 86.8646C20.7647 88.2352 22.6836 89 24.744 89C26.7942 89 28.703 88.2551 30.1068 86.8845C31.5006 85.5139 32.2782 83.6467 32.2782 81.6206V75.8402H38.7218V81.6106C38.7218 83.6268 39.4792 85.494 40.8831 86.8646C42.2768 88.2352 44.1957 89 46.256 89C48.3164 89 50.2151 88.2551 51.6189 86.8547C53.0127 85.4841 53.7903 83.6169 53.7903 81.5908V75.8104H57.0121C59.9713 75.8104 62.3851 73.4466 62.3851 70.5365V61.4588C62.7082 61.5184 63.0617 61.5581 63.4657 61.5581C65.5159 61.5581 67.4248 60.8132 68.8286 59.4426C70.2223 58.072 71 56.2048 71 54.1787V30.8386C70.9899 28.8225 70.2324 26.9652 68.8387 25.5846V25.5846ZM8.62504 54.1886C8.62504 54.864 8.23115 55.2414 7.54438 55.2414C6.85761 55.2414 6.46373 54.864 6.46373 54.1886V30.8386C6.46373 30.1633 6.85761 29.7858 7.54438 29.7858C8.23115 29.7858 8.62504 30.1633 8.62504 30.8386V54.1886ZM21.8656 14.7787C25.6529 12.0673 30.4805 10.5775 35.5 10.5775C40.5195 10.5775 45.3471 12.0772 49.1344 14.7986C52.4067 17.1524 54.6084 20.1817 55.4669 23.489H15.5331C16.3916 20.1717 18.6135 17.1326 21.8656 14.7787V14.7787ZM25.8347 81.7894C25.7741 82.3456 25.3903 82.6535 24.7743 82.6535C24.0875 82.6535 23.6936 82.2761 23.6936 81.6007V75.8203H25.8347V81.7894ZM46.2661 82.6535C45.5794 82.6535 45.1855 82.2761 45.1855 81.6007V75.8203H47.3266V81.7894C47.266 82.3456 46.8923 82.6535 46.2661 82.6535ZM55.9415 69.4838H15.0787V29.7958H55.9415V69.4838ZM64.5464 54.1886C64.5464 54.864 64.1525 55.2414 63.4657 55.2414C62.779 55.2414 62.3851 54.864 62.3851 54.1886V30.8386C62.3851 30.1633 62.779 29.7858 63.4657 29.7858C64.1525 29.7858 64.5464 30.1633 64.5464 30.8386V54.1886ZM41.9637 16.0103C40.0852 16.0103 38.7319 17.3411 38.7319 19.1786C38.7319 21.016 40.0953 22.3468 41.9637 22.3468C43.8422 22.3468 45.2057 21.016 45.2057 19.1686C45.1956 17.3213 43.8523 16.0103 41.9637 16.0103V16.0103Z" fill="black"/>
</svg>
