<svg width="82" height="71" viewBox="0 0 82 71" fill="none" xmlns="http://www.w3.org/2000/svg">
<path d="M15.4326 35.4929C15.4326 36.5062 15.233 37.5096 14.8452 38.4458C14.4574 39.382 13.889 40.2326 13.1725 40.9491C12.456 41.6656 11.6054 42.234 10.6692 42.6218C9.73299 43.0096 8.7296 43.2092 7.71628 43.2092C6.70296 43.2092 5.69957 43.0096 4.76339 42.6218C3.8272 42.234 2.97657 41.6656 2.26005 40.9491C1.54352 40.2326 0.975146 39.382 0.587367 38.4458C0.199587 37.5096 -1.50996e-08 36.5062 0 35.4929C3.0495e-08 33.4464 0.812963 31.4837 2.26005 30.0367C3.70713 28.5896 5.66979 27.7766 7.71628 27.7766C9.76276 27.7766 11.7254 28.5896 13.1725 30.0367C14.6196 31.4837 15.4326 33.4464 15.4326 35.4929V35.4929Z" fill="black"/>
<path d="M15.4326 7.71628C15.4326 8.7296 15.233 9.73299 14.8452 10.6692C14.4574 11.6054 13.889 12.456 13.1725 13.1725C12.456 13.889 11.6054 14.4574 10.6692 14.8452C9.73299 15.233 8.7296 15.4326 7.71628 15.4326C6.70296 15.4326 5.69957 15.233 4.76339 14.8452C3.8272 14.4574 2.97657 13.889 2.26005 13.1725C1.54352 12.456 0.975146 11.6054 0.587367 10.6692C0.199587 9.73299 -1.50996e-08 8.7296 0 7.71628C3.0495e-08 5.6698 0.812963 3.70713 2.26005 2.26005C3.70713 0.812963 5.66979 0 7.71628 0C9.76276 0 11.7254 0.812963 13.1725 2.26005C14.6196 3.70713 15.4326 5.6698 15.4326 7.71628V7.71628Z" fill="black"/>
<path d="M15.4326 63.2724C15.4326 64.2857 15.233 65.2891 14.8452 66.2253C14.4574 67.1615 13.889 68.0121 13.1725 68.7287C12.456 69.4452 11.6054 70.0136 10.6692 70.4013C9.73299 70.7891 8.7296 70.9887 7.71628 70.9887C6.70296 70.9887 5.69957 70.7891 4.76339 70.4013C3.8272 70.0136 2.97657 69.4452 2.26005 68.7287C1.54352 68.0121 0.975146 67.1615 0.587367 66.2253C0.199587 65.2891 -1.50996e-08 64.2857 0 63.2724C3.0495e-08 61.2259 0.812963 59.2633 2.26005 57.8162C3.70713 56.3691 5.66979 55.5562 7.71628 55.5562C9.76276 55.5562 11.7254 56.3691 13.1725 57.8162C14.6196 59.2633 15.4326 61.2259 15.4326 63.2724V63.2724Z" fill="black"/>
<path d="M28.9751 0.000976562H74.0777C76.1254 0.000976563 78.0892 0.814407 79.5371 2.26232C80.985 3.71024 81.7984 5.67403 81.7984 7.72169C81.7984 9.76935 80.985 11.7331 79.5371 13.1811C78.0892 14.629 76.1254 15.4424 74.0777 15.4424H28.9751C26.9274 15.4424 24.9637 14.629 23.5157 13.1811C22.0678 11.7331 21.2544 9.76935 21.2544 7.72169C21.2544 5.67403 22.0678 3.71024 23.5157 2.26232C24.9637 0.814407 26.9274 0.000976563 28.9751 0.000976563V0.000976562Z" fill="black"/>
<path d="M28.9751 27.7781H74.0777C75.0916 27.7781 76.0956 27.9778 77.0323 28.3658C77.969 28.7538 78.8201 29.3225 79.5371 30.0394C80.254 30.7564 80.8227 31.6075 81.2107 32.5442C81.5987 33.4809 81.7984 34.4849 81.7984 35.4988C81.7984 36.5127 81.5987 37.5167 81.2107 38.4534C80.8227 39.3901 80.254 40.2412 79.5371 40.9582C78.8201 41.6751 77.969 42.2438 77.0323 42.6318C76.0956 43.0198 75.0916 43.2195 74.0777 43.2195H28.9751C27.9612 43.2195 26.9572 43.0198 26.0205 42.6318C25.0838 42.2438 24.2327 41.6751 23.5157 40.9582C22.7988 40.2412 22.2301 39.3901 21.8421 38.4534C21.4541 37.5167 21.2544 36.5127 21.2544 35.4988C21.2544 34.4849 21.4541 33.4809 21.8421 32.5442C22.2301 31.6075 22.7988 30.7564 23.5157 30.0394C24.2327 29.3225 25.0838 28.7538 26.0205 28.3658C26.9572 27.9778 27.9612 27.7781 28.9751 27.7781V27.7781Z" fill="black"/>
<path d="M28.9751 55.5583H74.0777C75.0916 55.5583 76.0956 55.7581 77.0323 56.1461C77.969 56.5341 78.8201 57.1028 79.5371 57.8197C80.254 58.5366 80.8227 59.3878 81.2107 60.3245C81.5987 61.2612 81.7984 62.2652 81.7984 63.2791C81.7984 64.293 81.5987 65.2969 81.2107 66.2337C80.8227 67.1704 80.254 68.0215 79.5371 68.7384C78.8201 69.4554 77.969 70.0241 77.0323 70.4121C76.0956 70.8001 75.0916 70.9998 74.0777 70.9998H28.9751C27.9612 70.9998 26.9572 70.8001 26.0205 70.4121C25.0838 70.0241 24.2327 69.4554 23.5157 68.7384C22.7988 68.0215 22.2301 67.1704 21.8421 66.2337C21.4541 65.2969 21.2544 64.293 21.2544 63.2791C21.2544 62.2652 21.4541 61.2612 21.8421 60.3245C22.2301 59.3878 22.7988 58.5366 23.5157 57.8197C24.2327 57.1028 25.0838 56.5341 26.0205 56.1461C26.9572 55.7581 27.9612 55.5583 28.9751 55.5583V55.5583Z" fill="black"/>
</svg>
