<svg width="50" height="50" viewBox="0 0 50 50" fill="none" xmlns="http://www.w3.org/2000/svg">
<path d="M24.9933 16.6631C20.4028 16.6631 16.6566 20.4094 16.6566 25C16.6566 29.5906 20.4028 33.3369 24.9933 33.3369C29.5838 33.3369 33.33 29.5906 33.33 25C33.33 20.4094 29.5838 16.6631 24.9933 16.6631ZM49.9972 25C49.9972 21.5477 50.0285 18.1266 49.8346 14.6805C49.6407 10.6778 48.7276 7.12542 45.8007 4.19845C42.8675 1.26521 39.3214 0.358351 35.3188 0.16447C31.8665 -0.0294109 28.4455 0.00186028 24.9995 0.00186028C21.5473 0.00186028 18.1263 -0.0294109 14.6803 0.16447C10.6776 0.358351 7.12529 1.27147 4.19837 4.19845C1.26519 7.13168 0.358344 10.6778 0.164467 14.6805C-0.0294104 18.1329 0.00186025 21.5539 0.00186025 25C0.00186025 28.4461 -0.0294104 31.8734 0.164467 35.3195C0.358344 39.3222 1.27144 42.8746 4.19837 45.8016C7.13154 48.7348 10.6776 49.6417 14.6803 49.8355C18.1325 50.0294 21.5535 49.9981 24.9995 49.9981C28.4518 49.9981 31.8728 50.0294 35.3188 49.8355C39.3214 49.6417 42.8738 48.7285 45.8007 45.8016C48.7339 42.8683 49.6407 39.3222 49.8346 35.3195C50.0347 31.8734 49.9972 28.4523 49.9972 25ZM24.9933 37.8274C17.8949 37.8274 12.1661 32.0985 12.1661 25C12.1661 17.9015 17.8949 12.1726 24.9933 12.1726C32.0917 12.1726 37.8205 17.9015 37.8205 25C37.8205 32.0985 32.0917 37.8274 24.9933 37.8274ZM38.3458 14.643C36.6885 14.643 35.3501 13.3046 35.3501 11.6472C35.3501 9.98986 36.6885 8.65145 38.3458 8.65145C40.0031 8.65145 41.3415 9.98986 41.3415 11.6472C41.342 12.0408 41.2649 12.4306 41.1145 12.7942C40.9641 13.1579 40.7435 13.4884 40.4652 13.7667C40.1869 14.0449 39.8565 14.2656 39.4928 14.416C39.1291 14.5663 38.7393 14.6435 38.3458 14.643Z" fill="white"/>
</svg>
