<svg width="581" height="182" viewBox="0 0 581 182" fill="none" xmlns="http://www.w3.org/2000/svg">
<path d="M121.97 72.48C117.042 72.48 112.338 71.648 107.858 69.984C103.442 68.256 99.9858 66.048 97.4898 63.36L99.6978 59.712C102.066 62.208 105.234 64.256 109.202 65.856C113.234 67.392 117.458 68.16 121.874 68.16C128.274 68.16 133.106 66.944 136.37 64.512C139.634 62.08 141.266 58.912 141.266 55.008C141.266 52 140.402 49.6 138.674 47.808C136.946 46.016 134.802 44.64 132.242 43.68C129.682 42.72 126.226 41.728 121.874 40.704C116.946 39.488 112.978 38.304 109.97 37.152C107.026 36 104.498 34.24 102.386 31.872C100.338 29.44 99.3138 26.208 99.3138 22.176C99.3138 18.912 100.178 15.936 101.906 13.248C103.634 10.496 106.258 8.32 109.778 6.72C113.362 5.12 117.81 4.32 123.122 4.32C126.834 4.32 130.482 4.864 134.066 5.952C137.65 7.04 140.754 8.512 143.378 10.368L141.554 14.304C138.866 12.448 135.89 11.04 132.626 10.08C129.426 9.12 126.258 8.64 123.122 8.64C116.914 8.64 112.21 9.888 109.01 12.384C105.81 14.88 104.21 18.112 104.21 22.08C104.21 25.088 105.074 27.488 106.802 29.28C108.53 31.072 110.674 32.448 113.234 33.408C115.794 34.368 119.282 35.392 123.698 36.48C128.626 37.696 132.562 38.88 135.506 40.032C138.45 41.184 140.946 42.944 142.994 45.312C145.106 47.616 146.162 50.752 146.162 54.72C146.162 57.984 145.266 60.96 143.474 63.648C141.746 66.336 139.058 68.48 135.41 70.08C131.762 71.68 127.282 72.48 121.97 72.48ZM178.166 21.504C184.374 21.504 189.142 23.104 192.47 26.304C195.798 29.44 197.462 34.08 197.462 40.224V72H192.854V63.072C191.254 66.016 188.918 68.32 185.846 69.984C182.774 71.584 179.094 72.384 174.806 72.384C169.238 72.384 164.822 71.072 161.558 68.448C158.358 65.824 156.758 62.368 156.758 58.08C156.758 53.92 158.23 50.56 161.174 48C164.182 45.376 168.95 44.064 175.478 44.064H192.662V40.032C192.662 35.36 191.382 31.808 188.822 29.376C186.326 26.944 182.646 25.728 177.782 25.728C174.454 25.728 171.254 26.304 168.182 27.456C165.174 28.608 162.614 30.144 160.502 32.064L158.102 28.608C160.598 26.368 163.606 24.64 167.126 23.424C170.646 22.144 174.326 21.504 178.166 21.504ZM175.478 68.448C179.638 68.448 183.158 67.488 186.038 65.568C188.982 63.648 191.19 60.864 192.662 57.216V47.808H175.574C170.646 47.808 167.062 48.704 164.822 50.496C162.646 52.288 161.558 54.752 161.558 57.888C161.558 61.152 162.774 63.744 165.206 65.664C167.638 67.52 171.062 68.448 175.478 68.448ZM279.639 21.504C285.847 21.504 290.711 23.328 294.231 26.976C297.815 30.624 299.607 35.872 299.607 42.72V72H294.807V43.104C294.807 37.472 293.431 33.184 290.679 30.24C287.927 27.296 284.087 25.824 279.159 25.824C273.527 25.824 269.047 27.584 265.719 31.104C262.455 34.624 260.823 39.36 260.823 45.312V72H256.023V43.104C256.023 37.472 254.647 33.184 251.895 30.24C249.143 27.296 245.303 25.824 240.375 25.824C234.743 25.824 230.263 27.584 226.935 31.104C223.671 34.624 222.039 39.36 222.039 45.312V72H217.239V21.888H221.847V32.64C223.511 29.12 225.975 26.4 229.239 24.48C232.567 22.496 236.503 21.504 241.047 21.504C245.591 21.504 249.431 22.528 252.567 24.576C255.767 26.624 258.039 29.632 259.383 33.6C261.047 29.888 263.639 26.944 267.159 24.768C270.743 22.592 274.903 21.504 279.639 21.504ZM344.578 21.504C349.25 21.504 353.474 22.592 357.25 24.768C361.026 26.944 363.97 29.952 366.082 33.792C368.258 37.632 369.346 42.016 369.346 46.944C369.346 51.872 368.258 56.288 366.082 60.192C363.97 64.032 361.026 67.04 357.25 69.216C353.474 71.328 349.25 72.384 344.578 72.384C340.162 72.384 336.162 71.36 332.578 69.312C328.994 67.2 326.21 64.288 324.226 60.576V90.624H319.426V21.888H324.034V33.696C326.018 29.856 328.802 26.88 332.386 24.768C336.034 22.592 340.098 21.504 344.578 21.504ZM344.29 68.064C348.13 68.064 351.586 67.168 354.658 65.376C357.73 63.584 360.13 61.088 361.858 57.888C363.65 54.688 364.546 51.04 364.546 46.944C364.546 42.848 363.65 39.2 361.858 36C360.13 32.8 357.73 30.304 354.658 28.512C351.586 26.72 348.13 25.824 344.29 25.824C340.45 25.824 336.994 26.72 333.922 28.512C330.914 30.304 328.514 32.8 326.722 36C324.994 39.2 324.13 42.848 324.13 46.944C324.13 51.04 324.994 54.688 326.722 57.888C328.514 61.088 330.914 63.584 333.922 65.376C336.994 67.168 340.45 68.064 344.29 68.064ZM400.916 21.504C407.124 21.504 411.892 23.104 415.22 26.304C418.548 29.44 420.212 34.08 420.212 40.224V72H415.604V63.072C414.004 66.016 411.668 68.32 408.596 69.984C405.524 71.584 401.844 72.384 397.556 72.384C391.988 72.384 387.572 71.072 384.308 68.448C381.108 65.824 379.508 62.368 379.508 58.08C379.508 53.92 380.98 50.56 383.924 48C386.932 45.376 391.7 44.064 398.228 44.064H415.412V40.032C415.412 35.36 414.132 31.808 411.572 29.376C409.076 26.944 405.396 25.728 400.532 25.728C397.204 25.728 394.004 26.304 390.932 27.456C387.924 28.608 385.364 30.144 383.252 32.064L380.852 28.608C383.348 26.368 386.356 24.64 389.876 23.424C393.396 22.144 397.076 21.504 400.916 21.504ZM398.228 68.448C402.388 68.448 405.908 67.488 408.788 65.568C411.732 63.648 413.94 60.864 415.412 57.216V47.808H398.324C393.396 47.808 389.812 48.704 387.572 50.496C385.396 52.288 384.308 54.752 384.308 57.888C384.308 61.152 385.524 63.744 387.956 65.664C390.388 67.52 393.812 68.448 398.228 68.448ZM464.469 21.504C470.741 21.504 475.701 23.328 479.349 26.976C482.997 30.624 484.821 35.872 484.821 42.72V72H480.021V43.104C480.021 37.472 478.581 33.184 475.701 30.24C472.885 27.296 468.917 25.824 463.797 25.824C457.909 25.824 453.269 27.584 449.877 31.104C446.485 34.624 444.789 39.36 444.789 45.312V72H439.989V0.767996H444.789V32.352C446.517 28.896 449.077 26.24 452.469 24.384C455.861 22.464 459.861 21.504 464.469 21.504ZM25.7609 163.536C20.5129 163.536 15.7449 162.704 11.4569 161.04C7.23288 159.312 3.74488 156.816 0.992875 153.552L13.1849 139.152C14.9769 141.392 16.7369 143.056 18.4649 144.144C20.1929 145.232 21.9849 145.776 23.8409 145.776C26.2089 145.776 28.0009 145.072 29.2169 143.664C30.4969 142.256 31.1369 140.176 31.1369 137.424V111.888H8.28888V94.8H53.5049V136.08C53.5049 145.232 51.1369 152.112 46.4009 156.72C41.7289 161.264 34.8489 163.536 25.7609 163.536ZM86.7419 108.528C95.9579 108.528 102.998 110.608 107.862 114.768C112.726 118.864 115.158 125.2 115.158 133.776V162H94.9979V155.088C92.5019 160.336 87.5419 162.96 80.1179 162.96C75.9579 162.96 72.4059 162.256 69.4619 160.848C66.5819 159.376 64.3739 157.424 62.8379 154.992C61.3659 152.496 60.6299 149.712 60.6299 146.64C60.6299 141.456 62.6139 137.52 66.5819 134.832C70.5499 132.144 76.5659 130.8 84.6299 130.8H93.3659C92.6619 126.704 89.3659 124.656 83.4779 124.656C81.1099 124.656 78.7099 125.04 76.2779 125.808C73.8459 126.512 71.7659 127.504 70.0379 128.784L63.1259 114.48C66.1339 112.624 69.7499 111.184 73.9739 110.16C78.2619 109.072 82.5179 108.528 86.7419 108.528ZM86.6459 149.904C88.1819 149.904 89.5579 149.488 90.7739 148.656C91.9899 147.824 92.8859 146.576 93.4619 144.912V141.264H88.0859C83.6699 141.264 81.4619 142.736 81.4619 145.68C81.4619 146.896 81.9099 147.92 82.8059 148.752C83.7659 149.52 85.0459 149.904 86.6459 149.904ZM183.552 90.768V162H162.912V157.68C159.776 161.2 154.976 162.96 148.512 162.96C143.904 162.96 139.648 161.872 135.744 159.696C131.904 157.456 128.832 154.256 126.528 150.096C124.288 145.936 123.168 141.136 123.168 135.696C123.168 130.256 124.288 125.488 126.528 121.392C128.832 117.232 131.904 114.064 135.744 111.888C139.648 109.648 143.904 108.528 148.512 108.528C154.336 108.528 158.784 110.032 161.856 113.04V90.768H183.552ZM153.696 146.064C156.192 146.064 158.24 145.168 159.84 143.376C161.44 141.52 162.24 138.96 162.24 135.696C162.24 132.432 161.44 129.904 159.84 128.112C158.24 126.32 156.192 125.424 153.696 125.424C151.2 125.424 149.152 126.32 147.552 128.112C145.952 129.904 145.152 132.432 145.152 135.696C145.152 138.96 145.952 141.52 147.552 143.376C149.152 145.168 151.2 146.064 153.696 146.064ZM193.159 109.488H214.855V162H193.159V109.488ZM204.007 105.264C200.103 105.264 196.935 104.24 194.503 102.192C192.135 100.08 190.951 97.424 190.951 94.224C190.951 91.024 192.135 88.4 194.503 86.352C196.935 84.24 200.103 83.184 204.007 83.184C207.975 83.184 211.143 84.176 213.511 86.16C215.879 88.144 217.063 90.704 217.063 93.84C217.063 97.168 215.879 99.92 213.511 102.096C211.143 104.208 207.975 105.264 204.007 105.264ZM286.085 163.536C275.781 163.536 267.749 160.752 261.989 155.184C256.229 149.616 253.349 141.808 253.349 131.76V94.8H276.005V131.088C276.005 136.016 276.869 139.6 278.597 141.84C280.389 144.08 282.949 145.2 286.277 145.2C289.605 145.2 292.133 144.08 293.861 141.84C295.653 139.6 296.549 136.016 296.549 131.088V94.8H318.821V131.76C318.821 141.808 315.941 149.616 310.181 155.184C304.421 160.752 296.389 163.536 286.085 163.536ZM352.054 108.528C361.27 108.528 368.31 110.608 373.174 114.768C378.038 118.864 380.47 125.2 380.47 133.776V162H360.31V155.088C357.814 160.336 352.854 162.96 345.43 162.96C341.27 162.96 337.718 162.256 334.774 160.848C331.894 159.376 329.686 157.424 328.15 154.992C326.678 152.496 325.942 149.712 325.942 146.64C325.942 141.456 327.926 137.52 331.894 134.832C335.862 132.144 341.878 130.8 349.942 130.8H358.678C357.974 126.704 354.678 124.656 348.79 124.656C346.422 124.656 344.022 125.04 341.59 125.808C339.158 126.512 337.078 127.504 335.35 128.784L328.438 114.48C331.446 112.624 335.062 111.184 339.286 110.16C343.574 109.072 347.83 108.528 352.054 108.528ZM351.958 149.904C353.494 149.904 354.87 149.488 356.086 148.656C357.302 147.824 358.198 146.576 358.774 144.912V141.264H353.398C348.982 141.264 346.774 142.736 346.774 145.68C346.774 146.896 347.222 147.92 348.118 148.752C349.078 149.52 350.358 149.904 351.958 149.904ZM426.327 108.528C432.791 108.528 437.975 110.48 441.879 114.384C445.847 118.288 447.831 124.176 447.831 132.048V162H426.135V135.792C426.135 129.776 423.991 126.768 419.703 126.768C417.271 126.768 415.287 127.632 413.751 129.36C412.279 131.024 411.543 133.68 411.543 137.328V162H389.847V109.488H410.487V114.672C412.535 112.624 414.903 111.088 417.591 110.064C420.279 109.04 423.191 108.528 426.327 108.528ZM516.847 109.488V151.536C516.847 161.52 514.063 169.008 508.495 174C502.991 179.056 495.119 181.584 484.879 181.584C479.631 181.584 474.735 181.008 470.191 179.856C465.647 178.768 461.775 177.168 458.575 175.056L465.871 160.272C467.919 161.808 470.511 163.056 473.647 164.016C476.783 164.976 479.791 165.456 482.671 165.456C487.023 165.456 490.191 164.528 492.175 162.672C494.159 160.816 495.151 158.096 495.151 154.512V153.552C491.887 157.264 487.055 159.12 480.655 159.12C476.175 159.12 471.983 158.096 468.079 156.048C464.239 153.936 461.167 150.96 458.863 147.12C456.559 143.216 455.407 138.768 455.407 133.776C455.407 128.784 456.559 124.368 458.863 120.528C461.167 116.688 464.239 113.744 468.079 111.696C471.983 109.584 476.175 108.528 480.655 108.528C487.823 108.528 493.007 110.832 496.207 115.44V109.488H516.847ZM486.415 142.224C488.975 142.224 491.087 141.456 492.751 139.92C494.479 138.32 495.343 136.272 495.343 133.776C495.343 131.28 494.479 129.264 492.751 127.728C491.087 126.192 488.975 125.424 486.415 125.424C483.791 125.424 481.615 126.192 479.887 127.728C478.223 129.264 477.391 131.28 477.391 133.776C477.391 136.272 478.255 138.32 479.983 139.92C481.711 141.456 483.855 142.224 486.415 142.224ZM545.356 136.272C545.356 133.264 546.028 130.768 547.372 128.784C548.716 126.736 550.636 124.528 553.132 122.16C554.732 120.624 555.884 119.376 556.588 118.416C557.356 117.456 557.74 116.432 557.74 115.344C557.74 113.936 557.132 112.848 555.916 112.08C554.7 111.248 553.164 110.832 551.308 110.832C549.26 110.832 547.34 111.44 545.548 112.656C543.756 113.808 542.348 115.376 541.324 117.36L524.236 108.816C526.796 103.952 530.572 100.144 535.564 97.392C540.62 94.64 546.828 93.264 554.188 93.264C561.996 93.264 568.332 94.864 573.196 98.064C578.06 101.264 580.492 105.776 580.492 111.6C580.492 114.288 580.012 116.656 579.052 118.704C578.156 120.688 577.068 122.384 575.788 123.792C574.508 125.136 572.876 126.64 570.892 128.304C568.844 130.096 567.372 131.536 566.476 132.624C565.58 133.712 565.132 134.928 565.132 136.272H545.356ZM555.244 162.96C551.532 162.96 548.492 161.84 546.124 159.6C543.756 157.36 542.572 154.64 542.572 151.44C542.572 148.176 543.756 145.488 546.124 143.376C548.492 141.2 551.532 140.112 555.244 140.112C558.956 140.112 561.996 141.2 564.364 143.376C566.732 145.488 567.916 148.176 567.916 151.44C567.916 154.64 566.732 157.36 564.364 159.6C561.996 161.84 558.956 162.96 555.244 162.96Z" fill="#4F4F4F"/>
</svg>
