<svg width="777" height="752" viewBox="0 0 777 752" fill="none" xmlns="http://www.w3.org/2000/svg">
<path fill-rule="evenodd" clip-rule="evenodd" d="M652.443 232.705C675.866 290.058 624.996 348.863 610.893 409.188C597.52 466.388 610.262 532.055 572.031 576.654C532.27 623.038 468.354 641.712 407.45 646.519C348.304 651.187 291.702 630.883 239.382 602.909C186.269 574.511 129.314 542.183 107.393 486.086C85.9169 431.126 110.498 371.222 126.673 314.475C141.445 262.647 157.397 210.082 196.601 173.105C235.975 135.968 288.629 117.718 342.342 111.055C396.16 104.379 448.663 115.77 499.148 135.575C556.875 158.22 628.998 175.298 652.443 232.705Z" fill="#0B9444"/>
</svg>
